<svg width="50" height="50" viewBox="0 0 50 50" fill="none" xmlns="http://www.w3.org/2000/svg">
<rect width="50" height="50" rx="20" fill="#E9FFAB"/>
<path fill-rule="evenodd" clip-rule="evenodd" d="M30.7689 21.3818H35C35 17.9846 32.9644 16 29.5156 16H20.4844C17.0356 16 15 17.9846 15 21.3385V28.6615C15 32.0154 17.0356 34 20.4844 34H29.5156C32.9644 34 35 32.0154 35 28.6615V28.3495H30.7689C28.8052 28.3495 27.2133 26.7975 27.2133 24.883C27.2133 22.9685 28.8052 21.4165 30.7689 21.4165V21.3818ZM30.7689 22.8724H34.2533C34.6657 22.8724 35 23.1983 35 23.6004V26.131C34.9952 26.5311 34.6637 26.8543 34.2533 26.8589H30.8489C29.8548 26.872 28.9855 26.2084 28.76 25.2643C28.6471 24.6783 28.8056 24.0736 29.1931 23.6122C29.5805 23.1509 30.1573 22.8801 30.7689 22.8724ZM30.92 25.533H31.2489C31.6711 25.533 32.0133 25.1993 32.0133 24.7877C32.0133 24.3761 31.6711 24.0424 31.2489 24.0424H30.92C30.7181 24.0401 30.5236 24.1166 30.38 24.255C30.2364 24.3934 30.1555 24.5821 30.1556 24.779C30.1555 25.1921 30.4964 25.5282 30.92 25.533ZM19.7378 21.3818H25.3822C25.8044 21.3818 26.1467 21.0481 26.1467 20.6365C26.1467 20.2249 25.8044 19.8912 25.3822 19.8912H19.7378C19.319 19.8912 18.9782 20.2196 18.9733 20.6278C18.9733 21.0409 19.3142 21.3771 19.7378 21.3818Z" fill="#09703E"/>
</svg>
