<svg width="50" height="50" viewBox="0 0 50 50" fill="none" xmlns="http://www.w3.org/2000/svg">
<rect width="50" height="50" rx="15" fill="#E9FFAB"/>
<path fill-rule="evenodd" clip-rule="evenodd" d="M30.0108 27.6013C30.4248 27.6013 30.7608 27.2653 30.7608 26.8513V24.9993C30.7608 24.5853 30.4248 24.2493 30.0108 24.2493H24.3188C23.9948 23.1823 23.0128 22.3983 21.8408 22.3983C20.4068 22.3983 19.2398 23.5653 19.2398 24.9993C19.2398 26.4343 20.4068 27.6013 21.8408 27.6013C23.0128 27.6013 23.9948 26.8173 24.3188 25.7493H26.4308V26.8513C26.4308 27.2653 26.7668 27.6013 27.1808 27.6013C27.5948 27.6013 27.9308 27.2653 27.9308 26.8513V25.7493H29.2608V26.8513C29.2608 27.2653 29.5968 27.6013 30.0108 27.6013ZM20.6658 14.9993H29.3348C32.7228 14.9993 34.9998 17.3773 34.9998 20.9163V29.0833C34.9998 32.6223 32.7228 34.9993 29.3338 34.9993H20.6658C17.2768 34.9993 14.9998 32.6223 14.9998 29.0833V20.9163C14.9998 17.3773 17.2768 14.9993 20.6658 14.9993ZM20.7389 25.0002C20.7389 24.3922 21.2339 23.8982 21.8409 23.8982C22.4479 23.8982 22.9429 24.3922 22.9429 25.0002C22.9429 25.6072 22.4479 26.1012 21.8409 26.1012C21.2339 26.1012 20.7389 25.6072 20.7389 25.0002Z" fill="#09703E"/>
</svg>
