<svg width="50" height="50" viewBox="0 0 50 50" fill="none" xmlns="http://www.w3.org/2000/svg">
<rect width="50" height="50" rx="15" fill="#E9FFAB"/>
<path fill-rule="evenodd" clip-rule="evenodd" d="M24.7281 34.9137C24.8388 34.9715 24.9627 35.0009 25.0865 35C25.2103 34.999 25.3331 34.9686 25.4449 34.9097L29.0128 33.0025C30.0245 32.4631 30.8168 31.8601 31.435 31.1579C32.779 29.6282 33.5129 27.6758 33.4998 25.6626L33.4575 19.022C33.4535 18.2571 32.9511 17.5746 32.2082 17.3265L25.5707 15.0996C25.1711 14.9642 24.7331 14.9672 24.3405 15.1064L17.7282 17.4128C16.9893 17.6707 16.496 18.3581 16.5 19.124L16.5423 25.7597C16.5554 27.7758 17.3145 29.7194 18.6806 31.2335C19.3048 31.9258 20.1041 32.52 21.127 33.0505L24.7281 34.9137ZM23.7836 27.1089C23.9326 27.2521 24.1259 27.3227 24.3192 27.3207C24.5125 27.3198 24.7047 27.2472 24.8517 27.1021L28.7508 23.2581C29.0438 22.9688 29.0408 22.504 28.7448 22.2187C28.4478 21.9333 27.9696 21.9353 27.6766 22.2245L24.3081 25.5449L22.9289 24.2191C22.6319 23.9337 22.1547 23.9367 21.8607 24.226C21.5677 24.5152 21.5708 24.98 21.8678 25.2654L23.7836 27.1089Z" fill="#09703E"/>
</svg>
