<svg width="50" height="50" viewBox="0 0 50 50" fill="none" xmlns="http://www.w3.org/2000/svg">
<rect width="50" height="50" rx="15" fill="#E9FFAB"/>
<path d="M25 20.95C23.21 20.95 21.75 22.41 21.75 24.2V25.8C21.75 27.59 23.21 29.05 25 29.05C26.79 29.05 28.25 27.59 28.25 25.8V24.2C28.25 22.41 26.79 20.95 25 20.95ZM25.9 26.24C25.9 26.74 25.5 27.14 25 27.14C24.5 27.14 24.1 26.74 24.1 26.24V23.77C24.1 23.28 24.5 22.87 25 22.87C25.5 22.87 25.9 23.27 25.9 23.77V26.24Z" fill="#09703E"/>
<path d="M25 15C19.48 15 15 19.48 15 25C15 30.52 19.48 35 25 35C30.52 35 35 30.52 35 25C35 19.48 30.52 15 25 15ZM29.75 25.8C29.75 28.42 27.62 30.55 25 30.55C22.38 30.55 20.25 28.42 20.25 25.8V24.2C20.25 21.58 22.38 19.45 25 19.45C27.62 19.45 29.75 21.58 29.75 24.2V25.8Z" fill="#09703E"/>
</svg>
