<svg width="50" height="50" viewBox="0 0 50 50" fill="none" xmlns="http://www.w3.org/2000/svg">
<rect width="50" height="50" rx="15" fill="#E9FFAB"/>
<path d="M21.93 15H18.02C16 15 15 16 15 18.02V21.94C15 24 16 25 18.02 24.95H21.94C24 25 25 24 24.95 21.93V18.02C25 16 24 15 21.93 15ZM22.01 22.76C21.33 22.76 20.67 22.5 20.12 22.04C19.5 22.49 18.75 22.76 17.94 22.76C17.53 22.76 17.19 22.42 17.19 22.01C17.19 21.6 17.53 21.26 17.94 21.26C18.96 21.26 19.81 20.56 20.12 19.6H17.94C17.53 19.6 17.19 19.26 17.19 18.85C17.19 18.44 17.53 18.1 17.94 18.1H19.23C19.27 17.72 19.58 17.42 19.97 17.42C20.36 17.42 20.67 17.72 20.71 18.1H20.97C20.98 18.1 20.99 18.1 20.99 18.1H21.01H22C22.41 18.1 22.75 18.44 22.75 18.85C22.75 19.26 22.42 19.6 22 19.6H21.67C21.58 20.08 21.39 20.53 21.14 20.94C21.41 21.14 21.7 21.26 22.01 21.26C22.42 21.26 22.76 21.6 22.76 22.01C22.76 22.42 22.42 22.76 22.01 22.76Z" fill="#09703E"/>
<path d="M22 35.75C17.73 35.75 14.25 32.27 14.25 28C14.25 27.59 14.59 27.25 15 27.25C15.41 27.25 15.75 27.59 15.75 28C15.75 30.96 17.81 33.44 20.58 34.09L20.31 33.64C20.1 33.28 20.21 32.82 20.57 32.61C20.92 32.4 21.39 32.51 21.6 32.87L22.65 34.62C22.79 34.85 22.79 35.14 22.66 35.37C22.52 35.6 22.27 35.75 22 35.75Z" fill="#09703E"/>
<path d="M34.9999 22.75C34.5899 22.75 34.2499 22.41 34.2499 22C34.2499 19.04 32.1899 16.56 29.4199 15.91L29.6899 16.36C29.8999 16.72 29.7899 17.18 29.4299 17.39C29.0799 17.6 28.6099 17.49 28.3999 17.13L27.3499 15.38C27.2099 15.15 27.2099 14.86 27.3399 14.63C27.4799 14.4 27.7299 14.25 27.9999 14.25C32.2699 14.25 35.7499 17.73 35.7499 22C35.7499 22.41 35.4099 22.75 34.9999 22.75Z" fill="#09703E"/>
<path d="M29.9201 24.8501C27.1201 24.8501 24.8401 27.1201 24.8401 29.9301C24.8401 32.7301 27.1101 35.0101 29.9201 35.0101C32.7201 35.0101 35.0001 32.7401 35.0001 29.9301C35.0001 27.1201 32.7301 24.8501 29.9201 24.8501ZM32.4001 32.3401C32.0301 32.5201 31.5801 32.3801 31.3901 32.0001L31.2201 31.6601H28.6301L28.4601 32.0001C28.3301 32.2601 28.0601 32.4101 27.7901 32.4101C27.6801 32.4101 27.5601 32.3801 27.4601 32.3301C27.0901 32.1401 26.9401 31.6901 27.1201 31.3201L29.2601 27.0501C29.3901 26.8001 29.6501 26.6401 29.9301 26.6401C30.2101 26.6401 30.4701 26.8001 30.6001 27.0601L32.7401 31.3301C32.9201 31.7001 32.7701 32.1501 32.4001 32.3401Z" fill="#09703E"/>
<path d="M29.3799 30.1601H30.4699L29.9199 29.0701L29.3799 30.1601Z" fill="#09703E"/>
</svg>
