<svg width="50" height="50" viewBox="0 0 50 50" fill="none" xmlns="http://www.w3.org/2000/svg">
<rect width="50" height="50" rx="15" fill="#E9FFAB"/>
<path d="M22.5 32.5V31H17.5C16.95 31 16.45 30.78 16.09 30.41C15.72 30.05 15.5 29.55 15.5 29C15.5 27.97 16.3 27.11 17.31 27.01C17.37 27 17.43 27 17.5 27H32.5C32.57 27 32.63 27 32.69 27.01C33.17 27.05 33.59 27.26 33.91 27.59C34.32 27.99 34.54 28.56 34.49 29.18C34.4 30.23 33.45 31 32.39 31H27.5V32.5C27.5 33.88 26.38 35 25 35C23.62 35 22.5 33.88 22.5 32.5Z" fill="#09703E"/>
<path d="M30.1901 15H26.2501C25.9701 15 25.7501 15.22 25.7501 15.5V17C25.7501 17.41 25.4101 17.75 25.0001 17.75C24.9101 17.75 24.8301 17.73 24.7501 17.7C24.4601 17.6 24.2501 17.32 24.2501 17V15.5C24.2501 15.22 24.0301 15 23.7501 15H22.2401C21.9601 15 21.7401 15.22 21.7401 15.5V20C21.7401 20.41 21.4001 20.75 20.9901 20.75C20.5801 20.75 20.2401 20.41 20.2401 20V17.75V15.5C20.2401 15.23 20.0401 15.02 19.7701 15H19.7401C18.0001 15.04 16.6501 16.55 16.8301 18.3L17.2001 25.05C17.2301 25.58 17.6701 26 18.2001 26H31.8001C32.3301 26 32.7701 25.58 32.8001 25.05L33.1701 18.3C33.3501 16.53 31.9601 15 30.1901 15Z" fill="#09703E"/>
</svg>
