<svg width="50" height="50" viewBox="0 0 50 50" fill="none" xmlns="http://www.w3.org/2000/svg">
<rect width="50" height="50" rx="15" fill="#E9FFAB"/>
<path fill-rule="evenodd" clip-rule="evenodd" d="M21.4277 16C21.8477 16 22.1887 16.3344 22.1887 16.7472C22.1887 17.1591 21.8487 17.4935 21.4277 17.4935L19.7987 17.4944C18.4467 17.4964 17.3467 18.576 17.3467 19.9028V21.762C17.3467 22.1739 17.0047 22.5092 16.5847 22.5092C16.1647 22.5092 15.8237 22.1739 15.8237 21.762V19.9028C15.8237 17.7533 17.6067 16.0029 19.7977 16.001L21.4267 16H21.4277ZM28.6006 16.0003H30.1936C32.3906 16.0003 34.1766 17.7516 34.1766 19.906V21.7623C34.1766 22.1742 33.8366 22.5095 33.4156 22.5095C32.9956 22.5095 32.6546 22.1742 32.6546 21.7623V19.906C32.6546 18.5754 31.5506 17.4928 30.1936 17.4928H28.6006C28.1806 17.4928 27.8396 17.1594 27.8396 16.7475C27.8396 16.3347 28.1806 16.0003 28.6006 16.0003ZM27.7625 19.7427H22.2385C20.9745 19.7554 19.9585 20.7684 19.9695 22.0088V23.2542C19.9725 23.3993 20.0915 23.518 20.2395 23.5229H29.7595C29.9085 23.5189 30.0275 23.4003 30.0325 23.2542V22.0088C30.0335 21.4097 29.7975 20.8341 29.3715 20.4055C28.9485 19.9809 28.3675 19.7427 27.7625 19.7427ZM14.762 25.0412H35.239C35.659 25.0412 36 25.3756 36 25.7885C36 26.2003 35.659 26.5337 35.239 26.5337H34.177V30.0933C34.177 32.2486 32.39 34 30.194 34H28.601C28.18 34 27.839 33.6656 27.839 33.2528C27.839 32.8409 28.18 32.5065 28.601 32.5065H30.194C31.551 32.5065 32.655 31.4249 32.655 30.0933V26.5337H30.032V27.5251C30.042 28.7656 29.027 29.7795 27.762 29.7913H22.238C20.974 29.7795 19.959 28.7656 19.969 27.5251V26.5337H17.346V30.0972C17.346 31.424 18.447 32.5036 19.8 32.5056L21.428 32.5065C21.848 32.5065 22.189 32.8409 22.189 33.2528C22.188 33.6656 21.848 34 21.427 34L19.798 33.999C17.607 33.9971 15.823 32.2467 15.823 30.0972V26.5337H14.762C14.342 26.5337 14 26.2003 14 25.7885C14 25.3756 14.342 25.0412 14.762 25.0412Z" fill="#09703E"/>
</svg>
