<svg width="40" height="40" viewBox="0 0 40 40" fill="none" xmlns="http://www.w3.org/2000/svg">
<g clip-path="url(#clip0_511_4293)">
<path d="M28.6803 1.74164C26.1437 0.586641 23.2236 0 20.002 0C16.757 0 13.8369 0.586641 11.3203 1.74336C10.9037 1.935 10.7203 2.43 10.9119 2.84836C11.1036 3.26672 11.5986 3.44836 12.0169 3.25672C14.3136 2.20172 17.0003 1.66672 20.002 1.66672C22.9836 1.66672 25.6703 2.20172 27.9903 3.25836C28.102 3.30836 28.2203 3.33336 28.3353 3.33336C28.652 3.33336 28.9553 3.15336 29.0937 2.845C29.2837 2.42664 29.0987 1.93164 28.6803 1.74164Z" fill="white"/>
<path d="M32.2634 8.58161C28.885 5.14825 24.6434 3.33325 19.9984 3.33325C15.3717 3.33325 11.1334 5.14825 7.74337 8.57989C7.42001 8.90825 7.42337 9.43653 7.75001 9.75825C7.91337 9.91989 8.12501 9.99989 8.33501 9.99989C8.55001 9.99989 8.76501 9.91653 8.92837 9.75325C12 6.64333 15.8267 4.99997 19.9984 4.99997C24.185 4.99997 28.0167 6.64161 31.075 9.74997C31.3967 10.0766 31.925 10.0816 32.2534 9.75997C32.5817 9.43833 32.5867 8.90833 32.2634 8.58161Z" fill="white"/>
<path d="M19.9984 6.66675C18.8084 6.66675 17.6284 6.81339 16.4884 7.10511C16.0418 7.21847 15.7734 7.67175 15.8868 8.11675C16.0002 8.56511 16.4518 8.83339 16.9018 8.71839C17.9052 8.46339 18.9484 8.33339 19.9984 8.33339C26.8918 8.33339 32.4984 13.94 32.4984 20.8334C32.4984 21.2934 32.8718 21.6667 33.3318 21.6667C33.7918 21.6667 34.1652 21.2934 34.1652 20.8334C34.1651 13.0217 27.8101 6.66675 19.9984 6.66675Z" fill="white"/>
<path d="M14.0251 8.8783C13.7917 8.47994 13.2801 8.3483 12.8851 8.57994C11.8185 9.20494 10.8301 9.9733 9.95174 10.8633C7.35674 13.4867 5.8951 17.0217 5.8351 20.8199C5.82674 21.2816 6.1951 21.6583 6.6551 21.6666C6.6601 21.6666 6.6651 21.6666 6.66846 21.6666C7.12346 21.6666 7.4951 21.3016 7.50182 20.8466C7.55518 17.4816 8.84518 14.3516 11.1368 12.0366C11.9152 11.2482 12.7868 10.5699 13.7268 10.0199C14.1235 9.78658 14.2567 9.27494 14.0251 8.8783Z" fill="white"/>
<path d="M28.1651 13.72C26.1034 11.355 23.1267 10 19.9984 10C17.0918 10 14.3651 11.14 12.3218 13.2084C10.2868 15.2667 9.16679 18.0467 9.16679 21.0834C9.17179 22.875 8.61179 25.025 7.60843 27.0917L7.14007 27.9251C6.91507 28.3267 7.05671 28.8351 7.45843 29.0601C7.58843 29.1317 7.72843 29.1667 7.86679 29.1667C8.15843 29.1667 8.44015 29.0134 8.59343 28.7417L9.08507 27.8651C10.2351 25.4951 10.8401 23.1484 10.8334 21.0384C10.8334 18.4884 11.7834 16.1234 13.5068 14.3801C15.2368 12.6301 17.5418 11.6667 19.9984 11.6667C22.6434 11.6667 25.1634 12.8134 26.9084 14.8167C27.2134 15.1634 27.7384 15.1967 28.0851 14.8967C28.4317 14.5934 28.4667 14.0684 28.1651 13.72Z" fill="white"/>
<path d="M32.3801 30.4416L31.4417 27.365C30.9133 24.955 30.8683 22.6516 30.8401 21.2766L30.8301 20.8332C30.8301 19.5982 30.6217 18.3832 30.2117 17.2266C30.0601 16.7932 29.5833 16.5666 29.1483 16.7182C28.715 16.8732 28.4883 17.3482 28.6417 17.7832C28.9883 18.7616 29.1633 19.7882 29.1633 20.8549L29.1733 21.3082C29.2017 22.7466 29.25 25.1516 29.83 27.7866L30.7833 30.9266C30.8933 31.285 31.225 31.5166 31.5817 31.5166C31.6617 31.5166 31.7433 31.505 31.8251 31.4816C32.2651 31.3483 32.5134 30.8833 32.3801 30.4416Z" fill="white"/>
<path d="M29.9487 34.2882L29.1753 31.8083C27.802 27.5183 27.5453 22.6882 27.4987 20.8333C27.4987 16.6983 24.1337 13.3333 19.9987 13.3333C15.8637 13.3333 12.5003 16.7499 12.5003 20.9783C12.502 21.8549 12.3403 26.4882 8.82196 31.5632C8.5586 31.9416 8.6536 32.4616 9.03196 32.7232C9.40696 32.9816 9.9286 32.8899 10.192 32.5132C13.9003 27.1649 14.172 22.3266 14.167 20.9499C14.167 17.6699 16.782 14.9999 19.997 14.9999C23.2136 14.9999 25.8303 17.6183 25.8303 20.8549C25.8903 23.2749 26.1987 27.9815 27.5853 32.3099L28.3553 34.7832C28.467 35.1416 28.797 35.3699 29.152 35.3699C29.2353 35.3699 29.317 35.3582 29.4003 35.3315C29.8403 35.1949 30.0853 34.7283 29.9487 34.2882Z" fill="white"/>
<path d="M24.165 20.83C24.165 18.5316 22.2966 16.6633 19.9983 16.6633C17.7 16.6633 15.8317 18.5333 15.8317 20.8617C15.8417 21.1383 16.0251 27.685 10.7333 34.5733C10.4533 34.9383 10.5217 35.4617 10.8867 35.7417C11.2533 36.0217 11.7751 35.9533 12.0551 35.5883C17.7101 28.2283 17.5067 21.1 17.4967 20.8317C17.4967 19.4533 18.6183 18.3317 19.9967 18.3317C21.375 18.3317 22.4983 19.4533 22.4983 20.8517C22.52 21.785 22.5267 30.205 16.02 38.6583C15.74 39.0233 15.8066 39.545 16.1716 39.8267C16.325 39.9433 16.5033 40 16.68 40C16.93 40 17.1783 39.8884 17.3416 39.6717C24.2083 30.7516 24.19 21.8 24.165 20.83Z" fill="white"/>
<path d="M20.8298 20.7967C20.8098 20.3351 20.4347 20.0167 19.9614 20.0017C19.5014 20.0217 19.1447 20.4117 19.1647 20.8701C19.1647 20.8817 19.2114 22.1001 18.9014 24.0317C18.828 24.4851 19.138 24.9133 19.5914 24.9867C19.6364 24.9933 19.6814 24.9967 19.7247 24.9967C20.1281 24.9967 20.4814 24.7051 20.5481 24.2967C20.888 22.1801 20.8314 20.8517 20.8298 20.7967Z" fill="white"/>
<path d="M19.1935 26.7251C18.7535 26.6001 18.2885 26.8467 18.1569 27.2884C17.1135 30.8084 15.3819 34.1001 13.0085 37.0684C12.7219 37.4284 12.7802 37.9518 13.1402 38.2401C13.2935 38.3617 13.4785 38.4217 13.6602 38.4217C13.9052 38.4217 14.1468 38.3133 14.3102 38.1101C16.8185 34.9701 18.6502 31.4884 19.7552 27.7601C19.8868 27.3184 19.6352 26.8551 19.1935 26.7251Z" fill="white"/>
<path d="M27.2688 36.7134L26.2654 33.5184C25.8654 32.3234 25.4921 31.0568 25.4904 31.0534C25.3904 30.7151 25.0904 30.4768 24.7388 30.4568C24.3704 30.4168 24.0604 30.6401 23.9238 30.9634C23.9054 31.0068 22.0488 35.3701 19.9204 38.7201C19.6738 39.1084 19.7888 39.6251 20.1771 39.8701C20.3154 39.9584 20.4704 40.0001 20.6237 40.0001C20.8987 40.0001 21.1687 39.8634 21.3253 39.6167C22.6153 37.5867 23.7837 35.2567 24.547 33.6333C24.592 33.7667 24.6353 33.9017 24.6803 34.0333L25.6787 37.2117C25.8153 37.6501 26.2821 37.8983 26.7237 37.7583C27.1621 37.6201 27.4071 37.1517 27.2688 36.7134Z" fill="white"/>
</g>
<defs>
<clipPath id="clip0_511_4293">
<rect width="40" height="40" fill="white"/>
</clipPath>
</defs>
</svg>
