<svg width="50" height="50" viewBox="0 0 50 50" fill="none" xmlns="http://www.w3.org/2000/svg">
<rect width="50" height="50" rx="15" fill="#E9FFAB"/>
<path fill-rule="evenodd" clip-rule="evenodd" d="M20.5462 16.2779C20.7124 16.3979 20.9804 16.6734 20.9804 16.6734C22.0208 17.6486 23.5879 20.0739 24.0911 21.3044C24.1016 21.3044 24.4001 22.0361 24.4118 22.3841V22.4304C24.4118 22.9637 24.1133 23.4626 23.6335 23.7179C23.4357 23.8232 22.9546 23.9211 22.7224 23.9683C22.6456 23.984 22.596 23.9941 22.5931 23.997C21.9073 24.1016 20.8551 24.1704 19.7 24.1704C18.4876 24.1704 17.3898 24.1016 16.7145 23.9733C16.7028 23.9733 16.0861 23.8462 15.8801 23.7642C15.5828 23.6372 15.3312 23.4044 15.1709 23.1145C15.0562 22.8829 15 22.6383 15 22.3841C15.0105 22.1168 15.1826 21.618 15.2622 21.4208C15.7654 20.1203 17.412 17.6367 18.4185 16.6853C18.5231 16.5792 18.6421 16.4681 18.7248 16.3907C18.769 16.3494 18.8029 16.3178 18.8188 16.3017C19.0704 16.1045 19.3794 16 19.7117 16C20.0078 16 20.3051 16.0926 20.5462 16.2779ZM31.2286 23.1618C31.2286 23.6856 30.8108 24.1096 30.2947 24.1096C29.7786 24.1096 29.3608 23.6856 29.3608 23.1618L29.1033 18.583C29.1033 17.9154 29.637 17.375 30.2947 17.375C30.9524 17.375 31.4849 17.9154 31.4849 18.583L31.2286 23.1618ZM34.1199 26.2356C34.4172 26.3639 34.6688 26.5955 34.8291 26.8853C34.9438 27.1169 35 27.3616 35 27.617C34.9895 27.883 34.8174 28.3831 34.7367 28.5802C34.2346 29.8797 32.5868 32.3633 31.5815 33.3158C31.4787 33.4194 31.3619 33.5284 31.2793 33.6055L31.2792 33.6055C31.2331 33.6486 31.1976 33.6817 31.1812 33.6983C30.9284 33.8955 30.6206 34 30.2894 34C29.991 34 29.6937 33.9074 29.4538 33.7209C29.2876 33.6021 29.0196 33.3265 29.0196 33.3265C27.978 32.3526 26.4121 29.926 25.9089 28.6954C25.8972 28.6954 25.5999 27.965 25.5882 27.617V27.5706C25.5882 27.0361 25.8855 26.5373 26.3665 26.2819C26.5639 26.1777 27.0435 26.0796 27.2762 26.0319L27.2762 26.0319C27.3539 26.016 27.404 26.0058 27.4069 26.0028C28.0927 25.8983 29.1449 25.8294 30.3 25.8294C31.5124 25.8294 32.6102 25.8983 33.2855 26.0265C33.296 26.0265 33.9139 26.1536 34.1199 26.2356ZM19.7055 25.8905C19.1894 25.8905 18.7716 26.3146 18.7716 26.8383L18.5141 31.4171C18.5141 32.0846 19.0478 32.625 19.7055 32.625C20.3633 32.625 20.8958 32.0846 20.8958 31.4171L20.6395 26.8383C20.6395 26.3146 20.2216 25.8905 19.7055 25.8905Z" fill="#09703E"/>
</svg>
