<svg width="50" height="50" viewBox="0 0 50 50" fill="none" xmlns="http://www.w3.org/2000/svg">
<rect width="50" height="50" rx="20" fill="#E9FFAB"/>
<path d="M33.9101 24.12V19.73C33.9101 18.91 33.2901 17.98 32.5201 17.67L26.9501 15.39C25.7001 14.88 24.2901 14.88 23.0401 15.39L17.4701 17.67C16.7101 17.98 16.0901 18.91 16.0901 19.73V24.12C16.0901 29.01 19.6401 33.59 24.4901 34.93C24.8201 35.02 25.1801 35.02 25.5101 34.93C30.3601 33.59 33.9101 29.01 33.9101 24.12ZM25.7501 25.87V28.5C25.7501 28.91 25.4101 29.25 25.0001 29.25C24.5901 29.25 24.2501 28.91 24.2501 28.5V25.87C23.2401 25.55 22.5001 24.61 22.5001 23.5C22.5001 22.12 23.6201 21 25.0001 21C26.3801 21 27.5001 22.12 27.5001 23.5C27.5001 24.62 26.7601 25.55 25.7501 25.87Z" fill="#09703E"/>
</svg>
