<svg width="32" height="32" viewBox="0 0 32 32" fill="none" xmlns="http://www.w3.org/2000/svg">
<circle cx="16" cy="16" r="16" fill="white"/>
<path d="M19.3959 21.9821C19.3078 21.8232 19.1403 21.7245 18.9585 21.7245H12.3154C12.1337 21.7245 11.9662 21.8232 11.8781 21.9821L10.9178 23.7149C10.8576 23.8236 10.7591 23.9059 10.6415 23.9459L7.98221 24.8504C7.58576 24.9853 7.2091 24.6022 7.35062 24.2081L13.4109 7.33102C13.4822 7.13245 13.6705 7 13.8815 7H17.4185C17.6295 7 17.8178 7.13244 17.8891 7.33102L23.9503 24.2107C24.0917 24.6043 23.716 24.9872 23.3197 24.8533L20.6332 23.9457C20.5152 23.9059 20.4163 23.8234 20.3559 23.7144L19.3959 21.9821ZM17.1715 18.2697C17.5722 18.4681 18.012 18.0808 17.8658 17.6582L16.1095 12.5806C15.9543 12.1318 15.3197 12.1318 15.1645 12.5806L13.4082 17.6582C13.262 18.0808 13.7017 18.4681 14.1025 18.2697L15.4152 17.6199C15.555 17.5507 15.719 17.5507 15.8588 17.6199L17.1715 18.2697Z" fill="#09703E"/>
</svg>
