<svg width="47" height="36" viewBox="0 0 47 36" fill="none" xmlns="http://www.w3.org/2000/svg">
<path d="M17.1846 2.97418H29.8153V24.8367H17.1846V2.97418Z" fill="#FF5F00"/>
<path d="M8.64413 35.8409V33.5234C8.64413 32.6348 8.08264 32.0556 7.12022 32.0556C6.6391 32.0556 6.1178 32.2101 5.75687 32.7123C5.4763 32.2873 5.07537 32.0556 4.47388 32.0556C4.07276 32.0556 3.67201 32.1714 3.35108 32.5963V32.1328H2.50903V35.8409H3.35108V33.7937C3.35108 33.1372 3.71202 32.828 4.2735 32.828C4.83463 32.828 5.11556 33.1757 5.11556 33.7937V35.8409H5.95761V33.7937C5.95761 33.1372 6.35836 32.828 6.87966 32.828C7.44115 32.828 7.72171 33.1757 7.72171 33.7937V35.8409H8.64413ZM21.1143 32.1328H19.7512V31.0127H18.9091V32.1328H18.1473V32.8666H18.9089V34.5663C18.9089 35.4162 19.2699 35.9182 20.2323 35.9182C20.5932 35.9182 20.994 35.8024 21.2749 35.6479L21.0342 34.9525C20.7936 35.107 20.513 35.1457 20.3125 35.1457C19.9115 35.1457 19.7512 34.914 19.7512 34.5276V32.8666H21.1143V32.1328ZM28.2519 32.0554C27.7707 32.0554 27.45 32.2873 27.2494 32.5963V32.1328H26.4074V35.8409H27.2494V33.7551C27.2494 33.1372 27.53 32.7895 28.0513 32.7895C28.2117 32.7895 28.4122 32.8282 28.5726 32.8668L28.8132 32.0943C28.6528 32.0556 28.4122 32.0556 28.2519 32.0556V32.0554ZM17.4656 32.4418C17.0645 32.1714 16.5032 32.0556 15.9017 32.0556C14.9394 32.0556 14.2979 32.5191 14.2979 33.253C14.2979 33.8711 14.779 34.2186 15.6211 34.3346L16.022 34.3733C16.4631 34.4503 16.7037 34.5663 16.7037 34.7595C16.7037 35.0298 16.383 35.223 15.8215 35.223C15.2602 35.223 14.819 35.0298 14.5383 34.8367L14.1374 35.4547C14.5785 35.7637 15.18 35.9182 15.7813 35.9182C16.9041 35.9182 17.5458 35.4162 17.5458 34.7208C17.5458 34.0641 17.0245 33.7164 16.2224 33.6007L15.8215 33.562C15.4605 33.5232 15.18 33.4462 15.18 33.2144C15.18 32.944 15.4605 32.7895 15.9017 32.7895C16.383 32.7895 16.8641 32.9825 17.1046 33.0985L17.4656 32.4418ZM39.8402 32.0556C39.3589 32.0556 39.0382 32.2873 38.8376 32.5963V32.1328H37.9955V35.8409H38.8376V33.7551C38.8376 33.1372 39.1183 32.7895 39.6395 32.7895C39.8 32.7895 40.0006 32.8282 40.1609 32.8668L40.4015 32.0943C40.2411 32.0556 40.0006 32.0556 39.8402 32.0556ZM29.0939 33.9869C29.0939 35.107 29.8958 35.9182 31.1389 35.9182C31.7003 35.9182 32.1012 35.8024 32.5021 35.4934L32.1012 34.8367C31.7804 35.0685 31.4597 35.1843 31.0988 35.1843C30.4171 35.1843 29.936 34.7208 29.936 33.9869C29.936 33.2917 30.4171 32.828 31.0988 32.7895C31.4597 32.7895 31.7804 32.9053 32.1012 33.1372L32.5021 32.4805C32.1012 32.1714 31.7003 32.0556 31.1389 32.0556C29.8958 32.0556 29.0939 32.8668 29.0939 33.9869ZM36.8729 33.9869V32.1328H36.0309V32.5963C35.7501 32.2488 35.3492 32.0556 34.8279 32.0556C33.7453 32.0556 32.9032 32.8668 32.9032 33.9869C32.9032 35.107 33.7453 35.9182 34.8279 35.9182C35.3892 35.9182 35.7903 35.7251 36.0309 35.3774V35.8409H36.8729V33.9869ZM33.7853 33.9869C33.7853 33.3302 34.2264 32.7895 34.9481 32.7895C35.6298 32.7895 36.1111 33.2917 36.1111 33.9869C36.1111 34.6435 35.6298 35.1843 34.9481 35.1843C34.2264 35.1455 33.7853 34.6435 33.7853 33.9869ZM23.7209 32.0556C22.5981 32.0556 21.796 32.828 21.796 33.9869C21.796 35.1457 22.5979 35.9182 23.7609 35.9182C24.3222 35.9182 24.8837 35.7637 25.3248 35.4162L24.9237 34.8367C24.6029 35.0685 24.202 35.223 23.801 35.223C23.2797 35.223 22.7584 34.9912 22.6381 34.3344H25.4852V34.0256C25.5253 32.828 24.8035 32.0556 23.7207 32.0556H23.7209ZM23.7209 32.7508C24.242 32.7508 24.6031 33.06 24.6831 33.6394H22.6783C22.7584 33.1372 23.1194 32.7508 23.7209 32.7508ZM44.6118 33.9869V30.665H43.7697V32.5963C43.489 32.2488 43.088 32.0556 42.5667 32.0556C41.4841 32.0556 40.6421 32.8668 40.6421 33.9869C40.6421 35.107 41.4841 35.9182 42.5667 35.9182C43.1282 35.9182 43.5291 35.7251 43.7697 35.3774V35.8409H44.6118V33.9869ZM41.5243 33.9869C41.5243 33.3302 41.9652 32.7895 42.6871 32.7895C43.3688 32.7895 43.8499 33.2917 43.8499 33.9869C43.8499 34.6435 43.3688 35.1843 42.6871 35.1843C41.9652 35.1455 41.5243 34.6435 41.5243 33.9869ZM13.3755 33.9869V32.1328H12.5335V32.5963C12.2527 32.2488 11.8518 32.0556 11.3305 32.0556C10.2479 32.0556 9.40581 32.8668 9.40581 33.9869C9.40581 35.107 10.2479 35.9182 11.3305 35.9182C11.892 35.9182 12.2929 35.7251 12.5335 35.3774V35.8409H13.3755V33.9869ZM10.2479 33.9869C10.2479 33.3302 10.689 32.7895 11.4107 32.7895C12.0923 32.7895 12.5736 33.2917 12.5736 33.9869C12.5736 34.6435 12.0923 35.1843 11.4107 35.1843C10.689 35.1455 10.2479 34.6435 10.2479 33.9869Z" fill="#080422"/>
<path d="M17.9864 13.9055C17.9864 9.46353 20.1517 5.52356 23.4797 2.97416C21.0339 1.12013 17.9464 0 14.5782 0C6.59848 0 0.142822 6.21876 0.142822 13.9055C0.142822 21.5921 6.59848 27.811 14.5781 27.811C17.9463 27.811 21.0337 26.6909 23.4797 24.8367C20.1517 22.326 17.9864 18.3475 17.9864 13.9055Z" fill="#EB001B"/>
<path d="M46.8566 13.9055C46.8566 21.5921 40.401 27.811 32.4214 27.811C29.0532 27.811 25.9657 26.6909 23.5198 24.8367C26.888 22.2874 29.0132 18.3475 29.0132 13.9055C29.0132 9.46353 26.8478 5.52356 23.5198 2.97416C25.9656 1.12013 29.0532 0 32.4214 0C40.401 0 46.8568 6.25747 46.8568 13.9055H46.8566Z" fill="#F79E1B"/>
</svg>
