<svg width="50" height="50" viewBox="0 0 50 50" fill="none" xmlns="http://www.w3.org/2000/svg">
<rect width="50" height="50" rx="20" fill="#E9FFAB"/>
<path fill-rule="evenodd" clip-rule="evenodd" d="M17.54 15H20.92C22.33 15 23.46 16.15 23.46 17.561V20.97C23.46 22.39 22.33 23.53 20.92 23.53H17.54C16.14 23.53 15 22.39 15 20.97V17.561C15 16.15 16.14 15 17.54 15ZM17.54 26.4697H20.92C22.33 26.4697 23.46 27.6107 23.46 29.0307V32.4397C23.46 33.8497 22.33 34.9997 20.92 34.9997H17.54C16.14 34.9997 15 33.8497 15 32.4397V29.0307C15 27.6107 16.14 26.4697 17.54 26.4697ZM32.4601 15H29.0801C27.6701 15 26.5401 16.15 26.5401 17.561V20.97C26.5401 22.39 27.6701 23.53 29.0801 23.53H32.4601C33.8601 23.53 35.0001 22.39 35.0001 20.97V17.561C35.0001 16.15 33.8601 15 32.4601 15ZM29.0801 26.4697H32.4601C33.8601 26.4697 35.0001 27.6107 35.0001 29.0307V32.4397C35.0001 33.8497 33.8601 34.9997 32.4601 34.9997H29.0801C27.6701 34.9997 26.5401 33.8497 26.5401 32.4397V29.0307C26.5401 27.6107 27.6701 26.4697 29.0801 26.4697Z" fill="#09703E"/>
</svg>
