<svg width="50" height="50" viewBox="0 0 50 50" fill="none" xmlns="http://www.w3.org/2000/svg">
<rect width="50" height="50" rx="20" fill="#E9FFAB"/>
<path fill-rule="evenodd" clip-rule="evenodd" d="M35 24.8861L35 29.9254C35 32.445 33 34.5 30.56 34.5L19.44 34.5C16.99 34.5 15 32.445 15 29.9047L15 24.8758C15 22.3561 16.99 20.2908 19.43 20.2908L24.23 20.2908L24.23 26.6932L22.63 25.041C22.33 24.7312 21.84 24.7312 21.54 25.041C21.39 25.1959 21.32 25.4024 21.32 25.6089C21.32 25.8051 21.39 26.0117 21.54 26.1666L24.45 29.1819C24.59 29.3368 24.79 29.4194 25 29.4194C25.2 29.4194 25.4 29.3368 25.54 29.1819L28.45 26.1666C28.75 25.8568 28.75 25.3508 28.45 25.041C28.15 24.7312 27.66 24.7312 27.36 25.041L25.77 26.6932L25.77 20.2908L30.55 20.2908C33 20.2908 35 22.3561 35 24.8861ZM25.0001 15.5C25.4201 15.5 25.7701 15.8552 25.7701 16.2815L25.7701 20.2905L24.2301 20.2905L24.2301 16.2815C24.2301 15.8552 24.5701 15.5 25.0001 15.5Z" fill="#09703E"/>
</svg>
