<svg width="50" height="50" viewBox="0 0 50 50" fill="none" xmlns="http://www.w3.org/2000/svg">
<rect width="50" height="50" rx="20" fill="#E9FFAB"/>
<path fill-rule="evenodd" clip-rule="evenodd" d="M29.08 35H20.91C17.38 35 15 32.729 15 29.34V20.67C15 17.28 17.38 15 20.91 15H29.08C32.62 15 35 17.28 35 20.67V29.34C35 32.729 32.62 35 29.08 35ZM27.27 24.25H20.92C20.5 24.25 20.17 24.59 20.17 25C20.17 25.42 20.5 25.75 20.92 25.75H27.27L24.79 28.22C24.65 28.36 24.57 28.56 24.57 28.75C24.57 28.939 24.65 29.13 24.79 29.28C25.08 29.57 25.56 29.57 25.85 29.28L29.62 25.53C29.9 25.25 29.9 24.75 29.62 24.47L25.85 20.72C25.56 20.43 25.08 20.43 24.79 20.72C24.5 21.02 24.5 21.49 24.79 21.79L27.27 24.25Z" fill="#09703E"/>
</svg>
