<svg width="50" height="50" viewBox="0 0 50 50" fill="none" xmlns="http://www.w3.org/2000/svg">
<rect width="50" height="50" rx="15" fill="#E9FFAB"/>
<path d="M35 20.5499C35 21.2099 34.46 21.7499 33.8 21.7499H16.2C15.54 21.7499 15 21.2099 15 20.5499V20.5399C15 18.2499 16.85 16.3999 19.14 16.3999H30.85C33.14 16.3999 35 18.2599 35 20.5499Z" fill="#09703E"/>
<path d="M15 24.45V29.46C15 31.75 16.85 33.6 19.14 33.6H30.85C33.14 33.6 35 31.74 35 29.45V24.45C35 23.79 34.46 23.25 33.8 23.25H16.2C15.54 23.25 15 23.79 15 24.45ZM21 30.25H19C18.59 30.25 18.25 29.91 18.25 29.5C18.25 29.09 18.59 28.75 19 28.75H21C21.41 28.75 21.75 29.09 21.75 29.5C21.75 29.91 21.41 30.25 21 30.25ZM27.5 30.25H23.5C23.09 30.25 22.75 29.91 22.75 29.5C22.75 29.09 23.09 28.75 23.5 28.75H27.5C27.91 28.75 28.25 29.09 28.25 29.5C28.25 29.91 27.91 30.25 27.5 30.25Z" fill="#09703E"/>
</svg>
